Coordinates
nRows=4
nColumns=38

# SIMM Motion File Header:
name Coordinates
datacolumns 38
datarows 4
otherdata 1
range 2.25539999999999980000 2.25840000000000000000

Units are S.I. units (second, meters, Newtons, ...)
Angles are in degrees.

endheader
time	pelvis_tilt	pelvis_list	pelvis_rotation	pelvis_tx	pelvis_ty	pelvis_tz	hip_flexion_r	hip_adduction_r	hip_rotation_r	knee_angle_r	ankle_angle_r	subtalar_angle_r	mtp_angle_r	hip_flexion_l	hip_adduction_l	hip_rotation_l	knee_angle_l	ankle_angle_l	subtalar_angle_l	mtp_angle_l	lumbar_extension	lumbar_bending	lumbar_rotation	arm_flex_r	arm_add_r	arm_rot_r	elbow_flex_r	pro_sup_r	wrist_flex_r	wrist_dev_r	arm_flex_l	arm_add_l	arm_rot_l	elbow_flex_l	pro_sup_l	wrist_flex_l	wrist_dev_l
      2.25539999999999980000	     -1.26829220733946200000	      3.71559278152919250000	      0.67383968881977707000	      1.04897492308158610000	      0.98449872387061943000	     -0.31043427401958817000	     35.91369957149161300000	     -2.19741688224303910000	      1.84850213542923440000	    -83.93024690205585600000	      2.91210972076337880000	     -0.00000000000004057756	      0.00000000000004427518	      5.78532081173636840000	     10.05394640255581300000	      3.48569392935653970000	    -35.48606156958767600000	     17.16367392771129400000	     -0.00000000000005349688	     -0.00000000000003739651	    -10.59530676478220600000	     -5.81277482813603450000	     -7.05273640150090490000	    -30.86605582293178100000	     -6.63670696704575480000	     -8.33748984109376680000	     50.06613775794451000000	     63.37039403208748900000	      0.00000000000003195895	      0.00000000000005494033	    -22.39306987668569300000	    -18.49931106448395500000	      0.28742806252938019000	    110.30194473837064000000	     90.02866860258134800000	      0.00000000000000607992	     -0.00000000000000140944
      2.25640000000000020000	     -1.31930922286749900000	      3.63871142264373090000	      0.66809782015647901000	      1.04907313085968590000	      0.98507604919650749000	     -0.31046668083212214000	     36.01977593266372000000	     -2.12843615630291530000	      1.80912782252574100000	    -83.59145828885529300000	      2.92825908965651970000	     -0.00000000000004060112	      0.00000000000004427640	      5.59310391262600870000	      9.98080138366825410000	      3.55315997300417190000	    -35.26036120237361600000	     16.99872556136483600000	     -0.00000000000005383122	     -0.00000000000003791317	    -10.52013727356732400000	     -5.70859933279706680000	     -7.11495371455587480000	    -30.99104279744180300000	     -6.65111549625022920000	     -8.38355197546535540000	     50.07966278956345000000	     63.17119856207483500000	      0.00000000000003205454	      0.00000000000005501592	    -22.34026461449489200000	    -18.48820502049806100000	      0.31246736893728261000	    110.52753982301418000000	     89.92483448166461800000	      0.00000000000000609281	     -0.00000000000000140878
      2.25740000000000010000	     -1.37037632132179590000	      3.56146804368812960000	      0.66159688267166561000	      1.04917463102309050000	      0.98566152978294963000	     -0.31049684560899732000	     36.12298950089663000000	     -2.05865746083580390000	      1.76943363606880680000	    -83.24748068099431500000	      2.94253420506839050000	     -0.00000000000004062648	      0.00000000000004427716	      5.40163147158074870000	      9.90648265504701090000	      3.61893651175392960000	    -35.03502310825878400000	     16.82770602093080500000	     -0.00000000000005416795	     -0.00000000000003841049	    -10.44459801483164600000	     -5.60418544630597100000	     -7.17610554060598370000	    -31.11658681748554400000	     -6.66601544149488760000	     -8.42956453833613930000	     50.09643233045245100000	     62.97584840187215600000	      0.00000000000003214900	      0.00000000000005509213	    -22.28947570574255700000	    -18.47748997659638400000	      0.33897063160011248000	    110.75415698975854000000	     89.81112627525691000000	      0.00000000000000610593	     -0.00000000000000141377
      2.25840000000000000000	     -1.42142082217063880000	      3.48385014601930720000	      0.65434685395949399000	      1.04927939190654970000	      0.98625509260286803000	     -0.31052477370687476000	     36.22325780874140100000	     -1.98808802634849900000	      1.72938900407773530000	    -82.89834020389672300000	      2.95488404000293150000	     -0.00000000000004064640	      0.00000000000004427845	      5.21087488877381500000	      9.83097375784738330000	      3.68299939404302410000	    -34.81013473890104800000	     16.65063076993171300000	     -0.00000000000005445327	     -0.00000000000003898374	    -10.36878226547388900000	     -5.49951740957293730000	     -7.23618139000070480000	    -31.24263656867892900000	     -6.68139216177900690000	     -8.47554964096217840000	     50.11629021909981700000	     62.78454964523160700000	      0.00000000000003224372	      0.00000000000005516920	    -22.24065619000999000000	    -18.46717303403098900000	      0.36695312961047627000	    110.98170116916161000000	     89.68773760956466400000	      0.00000000000000612006	     -0.00000000000000141555
